<svg xmlns="http://www.w3.org/2000/svg" width="440" height="374" viewBox="0 0 440 374" role="img" aria-label="折本 8ページ（A4→A7・右綴じ）">
<rect width="440" height="374" fill="#ffffff"/>
<rect x="28" y="28" width="384" height="272" fill="#fbfbfd" stroke="#222" stroke-width="2"/>
<line x1="124" y1="28" x2="124" y2="164" stroke="#9aa0aa" stroke-width="1.5" stroke-dasharray="7 5"/>
<line x1="220" y1="28" x2="220" y2="164" stroke="#9aa0aa" stroke-width="1.5" stroke-dasharray="7 5"/>
<line x1="316" y1="28" x2="316" y2="164" stroke="#9aa0aa" stroke-width="1.5" stroke-dasharray="7 5"/>
<line x1="124" y1="164" x2="124" y2="300" stroke="#9aa0aa" stroke-width="1.5" stroke-dasharray="7 5"/>
<line x1="220" y1="164" x2="220" y2="300" stroke="#9aa0aa" stroke-width="1.5" stroke-dasharray="7 5"/>
<line x1="316" y1="164" x2="316" y2="300" stroke="#9aa0aa" stroke-width="1.5" stroke-dasharray="7 5"/>
<line x1="28" y1="164" x2="124" y2="164" stroke="#9aa0aa" stroke-width="1.5" stroke-dasharray="7 5"/>
<line x1="316" y1="164" x2="412" y2="164" stroke="#9aa0aa" stroke-width="1.5" stroke-dasharray="7 5"/>
<line x1="124" y1="164" x2="220" y2="164" stroke="#d1495b" stroke-width="3.5"/>
<line x1="220" y1="164" x2="316" y2="164" stroke="#d1495b" stroke-width="3.5"/>
<g transform="rotate(180 76.0 96.0)"><circle cx="76.0" cy="96.0" r="21" fill="none" stroke="#222" stroke-width="1.5"/><text x="76.0" y="104.0" text-anchor="middle" font-size="24" font-family="'Hiragino Sans','Yu Gothic', 'Noto Sans JP', sans-serif" fill="#222">4</text><text x="76.0" y="136.0" text-anchor="middle" font-size="11" font-family="'Hiragino Sans','Yu Gothic', 'Noto Sans JP', sans-serif" fill="#98a">天地逆</text></g>
<g transform="rotate(180 172.0 96.0)"><circle cx="172.0" cy="96.0" r="21" fill="none" stroke="#222" stroke-width="1.5"/><text x="172.0" y="104.0" text-anchor="middle" font-size="24" font-family="'Hiragino Sans','Yu Gothic', 'Noto Sans JP', sans-serif" fill="#222">5</text><text x="172.0" y="136.0" text-anchor="middle" font-size="11" font-family="'Hiragino Sans','Yu Gothic', 'Noto Sans JP', sans-serif" fill="#98a">天地逆</text></g>
<g transform="rotate(180 268.0 96.0)"><circle cx="268.0" cy="96.0" r="21" fill="none" stroke="#222" stroke-width="1.5"/><text x="268.0" y="104.0" text-anchor="middle" font-size="24" font-family="'Hiragino Sans','Yu Gothic', 'Noto Sans JP', sans-serif" fill="#222">6</text><text x="268.0" y="136.0" text-anchor="middle" font-size="11" font-family="'Hiragino Sans','Yu Gothic', 'Noto Sans JP', sans-serif" fill="#98a">天地逆</text></g>
<g transform="rotate(180 364.0 96.0)"><circle cx="364.0" cy="96.0" r="21" fill="none" stroke="#222" stroke-width="1.5"/><text x="364.0" y="104.0" text-anchor="middle" font-size="24" font-family="'Hiragino Sans','Yu Gothic', 'Noto Sans JP', sans-serif" fill="#222">7</text><text x="364.0" y="136.0" text-anchor="middle" font-size="11" font-family="'Hiragino Sans','Yu Gothic', 'Noto Sans JP', sans-serif" fill="#98a">天地逆</text></g>
<g><circle cx="76.0" cy="232.0" r="21" fill="none" stroke="#222" stroke-width="1.5"/><text x="76.0" y="240.0" text-anchor="middle" font-size="24" font-family="'Hiragino Sans','Yu Gothic', 'Noto Sans JP', sans-serif" fill="#222">3</text><text x="76.0" y="272.0" text-anchor="middle" font-size="11" font-family="'Hiragino Sans','Yu Gothic', 'Noto Sans JP', sans-serif" fill="#98a">そのまま</text></g>
<g><circle cx="172.0" cy="232.0" r="21" fill="none" stroke="#222" stroke-width="1.5"/><text x="172.0" y="240.0" text-anchor="middle" font-size="24" font-family="'Hiragino Sans','Yu Gothic', 'Noto Sans JP', sans-serif" fill="#222">2</text><text x="172.0" y="272.0" text-anchor="middle" font-size="11" font-family="'Hiragino Sans','Yu Gothic', 'Noto Sans JP', sans-serif" fill="#98a">そのまま</text></g>
<g><circle cx="268.0" cy="232.0" r="21" fill="none" stroke="#222" stroke-width="1.5"/><text x="268.0" y="240.0" text-anchor="middle" font-size="24" font-family="'Hiragino Sans','Yu Gothic', 'Noto Sans JP', sans-serif" fill="#222">1</text><text x="268.0" y="272.0" text-anchor="middle" font-size="11" font-family="'Hiragino Sans','Yu Gothic', 'Noto Sans JP', sans-serif" fill="#98a">そのまま</text></g>
<g><circle cx="364.0" cy="232.0" r="21" fill="none" stroke="#222" stroke-width="1.5"/><text x="364.0" y="240.0" text-anchor="middle" font-size="24" font-family="'Hiragino Sans','Yu Gothic', 'Noto Sans JP', sans-serif" fill="#222">8</text><text x="364.0" y="272.0" text-anchor="middle" font-size="11" font-family="'Hiragino Sans','Yu Gothic', 'Noto Sans JP', sans-serif" fill="#98a">そのまま</text></g>
<line x1="28" y1="322" x2="54" y2="322" stroke="#9aa0aa" stroke-width="1.5" stroke-dasharray="7 5"/><text x="60" y="326" font-size="12" font-family="'Hiragino Sans','Yu Gothic', 'Noto Sans JP', sans-serif" fill="#555">折り線</text><line x1="124" y1="322" x2="150" y2="322" stroke="#d1495b" stroke-width="3.5"/><text x="156" y="326" font-size="12" font-family="'Hiragino Sans','Yu Gothic', 'Noto Sans JP', sans-serif" fill="#555">切り込み（ハサミ）</text>
</svg>
